<svg xmlns="http://www.w3.org/2000/svg" width="1000" height="1800" viewBox="0 0 1000 1800" fill="none"><style>.art-ink,
.art-ink-soft,
.art-hair,
.art-blue,
.art-gold {
  fill: none;
  vector-effect: non-scaling-stroke;
  stroke-linecap: round;
  stroke-linejoin: round;
}

.art-ink {
  stroke: rgba(196, 210, 230, .38);
  stroke-width: 1.6;
}

.art-ink-soft {
  stroke: rgba(196, 210, 230, .2);
  stroke-width: 1.2;
}

/* Hairline filigree — the finest lines (tree-rings, arcs, contours). */
.art-hair {
  stroke: rgba(196, 210, 230, .2);
  stroke-width: 0.6;
}

.art-blue, .art-gold {
  stroke-width: 1.2;
  stroke-opacity: .55;
}

.art-blue { stroke: #5a82be; }
.art-gold { stroke: #b28945; }

.art-fill-ink {
  fill: rgba(196, 210, 230, .38);
  stroke: none;
}

/* Stipple dots for organic growth. */
.art-dot {
  fill: rgba(196, 210, 230, .2);
  stroke: none;
}</style>
<!-- Subquadratic attention: dense and sparse comparisons, recurrent memory, learned routing, and continuous matrix strips. -->
<defs>
<g id="post-texture" opacity=".38">
<path class="art-hair" d="M702 0V1800" />
<path class="art-hair" d="M970 0V1800" />
<rect class="art-hair" x="714" y="35" width="7" height="7" rx="1"/>
<rect class="art-blue" x="916" y="35" width="7" height="7" rx="1"/>
<rect class="art-hair" x="714" y="47" width="7" height="7" rx="1"/>
<rect class="art-hair" x="714" y="59" width="7" height="7" rx="1"/>
<rect class="art-hair" x="714" y="71" width="7" height="7" rx="1"/>
<rect class="art-hair" x="726" y="47" width="7" height="7" rx="1"/>
<rect class="art-blue" x="928" y="47" width="7" height="7" rx="1"/>
<rect class="art-hair" x="726" y="59" width="7" height="7" rx="1"/>
<rect class="art-hair" x="726" y="71" width="7" height="7" rx="1"/>
<rect class="art-hair" x="738" y="59" width="7" height="7" rx="1"/>
<rect class="art-blue" x="940" y="59" width="7" height="7" rx="1"/>
<rect class="art-hair" x="738" y="71" width="7" height="7" rx="1"/>
<rect class="art-hair" x="750" y="71" width="7" height="7" rx="1"/>
<rect class="art-blue" x="952" y="71" width="7" height="7" rx="1"/>
<path class="art-hair" d="M941 81V112H920V131" />
<circle class="art-ink-soft" cx="920" cy="133" r="3"/>
<rect class="art-hair" x="714" y="135" width="7" height="7" rx="1"/>
<rect class="art-blue" x="916" y="135" width="7" height="7" rx="1"/>
<rect class="art-hair" x="714" y="147" width="7" height="7" rx="1"/>
<rect class="art-hair" x="714" y="159" width="7" height="7" rx="1"/>
<rect class="art-hair" x="714" y="171" width="7" height="7" rx="1"/>
<rect class="art-hair" x="726" y="147" width="7" height="7" rx="1"/>
<rect class="art-blue" x="928" y="147" width="7" height="7" rx="1"/>
<rect class="art-hair" x="726" y="159" width="7" height="7" rx="1"/>
<rect class="art-hair" x="726" y="171" width="7" height="7" rx="1"/>
<rect class="art-hair" x="738" y="159" width="7" height="7" rx="1"/>
<rect class="art-blue" x="940" y="159" width="7" height="7" rx="1"/>
<rect class="art-hair" x="738" y="171" width="7" height="7" rx="1"/>
<rect class="art-hair" x="750" y="171" width="7" height="7" rx="1"/>
<rect class="art-blue" x="952" y="171" width="7" height="7" rx="1"/>
<path class="art-hair" d="M941 181V212H920V231" />
<circle class="art-ink-soft" cx="920" cy="233" r="3"/>
<rect class="art-hair" x="714" y="235" width="7" height="7" rx="1"/>
<rect class="art-blue" x="916" y="235" width="7" height="7" rx="1"/>
<rect class="art-hair" x="714" y="247" width="7" height="7" rx="1"/>
<rect class="art-hair" x="714" y="259" width="7" height="7" rx="1"/>
<rect class="art-hair" x="714" y="271" width="7" height="7" rx="1"/>
<rect class="art-hair" x="726" y="247" width="7" height="7" rx="1"/>
<rect class="art-blue" x="928" y="247" width="7" height="7" rx="1"/>
<rect class="art-hair" x="726" y="259" width="7" height="7" rx="1"/>
<rect class="art-hair" x="726" y="271" width="7" height="7" rx="1"/>
<rect class="art-hair" x="738" y="259" width="7" height="7" rx="1"/>
<rect class="art-blue" x="940" y="259" width="7" height="7" rx="1"/>
<rect class="art-hair" x="738" y="271" width="7" height="7" rx="1"/>
<rect class="art-hair" x="750" y="271" width="7" height="7" rx="1"/>
<rect class="art-blue" x="952" y="271" width="7" height="7" rx="1"/>
<path class="art-hair" d="M941 281V312H920V331" />
<circle class="art-ink-soft" cx="920" cy="333" r="3"/>
<rect class="art-hair" x="714" y="335" width="7" height="7" rx="1"/>
<rect class="art-blue" x="916" y="335" width="7" height="7" rx="1"/>
<rect class="art-hair" x="714" y="347" width="7" height="7" rx="1"/>
<rect class="art-hair" x="714" y="359" width="7" height="7" rx="1"/>
<rect class="art-hair" x="714" y="371" width="7" height="7" rx="1"/>
<rect class="art-hair" x="726" y="347" width="7" height="7" rx="1"/>
<rect class="art-blue" x="928" y="347" width="7" height="7" rx="1"/>
<rect class="art-hair" x="726" y="359" width="7" height="7" rx="1"/>
<rect class="art-hair" x="726" y="371" width="7" height="7" rx="1"/>
<rect class="art-hair" x="738" y="359" width="7" height="7" rx="1"/>
<rect class="art-blue" x="940" y="359" width="7" height="7" rx="1"/>
<rect class="art-hair" x="738" y="371" width="7" height="7" rx="1"/>
<rect class="art-hair" x="750" y="371" width="7" height="7" rx="1"/>
<rect class="art-blue" x="952" y="371" width="7" height="7" rx="1"/>
<path class="art-hair" d="M941 381V412H920V431" />
<circle class="art-ink-soft" cx="920" cy="433" r="3"/>
<rect class="art-hair" x="714" y="435" width="7" height="7" rx="1"/>
<rect class="art-blue" x="916" y="435" width="7" height="7" rx="1"/>
<rect class="art-hair" x="714" y="447" width="7" height="7" rx="1"/>
<rect class="art-hair" x="714" y="459" width="7" height="7" rx="1"/>
<rect class="art-hair" x="714" y="471" width="7" height="7" rx="1"/>
<rect class="art-hair" x="726" y="447" width="7" height="7" rx="1"/>
<rect class="art-blue" x="928" y="447" width="7" height="7" rx="1"/>
<rect class="art-hair" x="726" y="459" width="7" height="7" rx="1"/>
<rect class="art-hair" x="726" y="471" width="7" height="7" rx="1"/>
<rect class="art-hair" x="738" y="459" width="7" height="7" rx="1"/>
<rect class="art-blue" x="940" y="459" width="7" height="7" rx="1"/>
<rect class="art-hair" x="738" y="471" width="7" height="7" rx="1"/>
<rect class="art-hair" x="750" y="471" width="7" height="7" rx="1"/>
<rect class="art-blue" x="952" y="471" width="7" height="7" rx="1"/>
<path class="art-hair" d="M941 481V512H920V531" />
<circle class="art-ink-soft" cx="920" cy="533" r="3"/>
<rect class="art-hair" x="714" y="535" width="7" height="7" rx="1"/>
<rect class="art-blue" x="916" y="535" width="7" height="7" rx="1"/>
<rect class="art-hair" x="714" y="547" width="7" height="7" rx="1"/>
<rect class="art-hair" x="714" y="559" width="7" height="7" rx="1"/>
<rect class="art-hair" x="714" y="571" width="7" height="7" rx="1"/>
<rect class="art-hair" x="726" y="547" width="7" height="7" rx="1"/>
<rect class="art-blue" x="928" y="547" width="7" height="7" rx="1"/>
<rect class="art-hair" x="726" y="559" width="7" height="7" rx="1"/>
<rect class="art-hair" x="726" y="571" width="7" height="7" rx="1"/>
<rect class="art-hair" x="738" y="559" width="7" height="7" rx="1"/>
<rect class="art-blue" x="940" y="559" width="7" height="7" rx="1"/>
<rect class="art-hair" x="738" y="571" width="7" height="7" rx="1"/>
<rect class="art-hair" x="750" y="571" width="7" height="7" rx="1"/>
<rect class="art-blue" x="952" y="571" width="7" height="7" rx="1"/>
<path class="art-hair" d="M941 581V612H920V631" />
<circle class="art-ink-soft" cx="920" cy="633" r="3"/>
<rect class="art-hair" x="714" y="635" width="7" height="7" rx="1"/>
<rect class="art-blue" x="916" y="635" width="7" height="7" rx="1"/>
<rect class="art-hair" x="714" y="647" width="7" height="7" rx="1"/>
<rect class="art-hair" x="714" y="659" width="7" height="7" rx="1"/>
<rect class="art-hair" x="714" y="671" width="7" height="7" rx="1"/>
<rect class="art-hair" x="726" y="647" width="7" height="7" rx="1"/>
<rect class="art-blue" x="928" y="647" width="7" height="7" rx="1"/>
<rect class="art-hair" x="726" y="659" width="7" height="7" rx="1"/>
<rect class="art-hair" x="726" y="671" width="7" height="7" rx="1"/>
<rect class="art-hair" x="738" y="659" width="7" height="7" rx="1"/>
<rect class="art-blue" x="940" y="659" width="7" height="7" rx="1"/>
<rect class="art-hair" x="738" y="671" width="7" height="7" rx="1"/>
<rect class="art-hair" x="750" y="671" width="7" height="7" rx="1"/>
<rect class="art-blue" x="952" y="671" width="7" height="7" rx="1"/>
<path class="art-hair" d="M941 681V712H920V731" />
<circle class="art-ink-soft" cx="920" cy="733" r="3"/>
<rect class="art-hair" x="714" y="735" width="7" height="7" rx="1"/>
<rect class="art-blue" x="916" y="735" width="7" height="7" rx="1"/>
<rect class="art-hair" x="714" y="747" width="7" height="7" rx="1"/>
<rect class="art-hair" x="714" y="759" width="7" height="7" rx="1"/>
<rect class="art-hair" x="714" y="771" width="7" height="7" rx="1"/>
<rect class="art-hair" x="726" y="747" width="7" height="7" rx="1"/>
<rect class="art-blue" x="928" y="747" width="7" height="7" rx="1"/>
<rect class="art-hair" x="726" y="759" width="7" height="7" rx="1"/>
<rect class="art-hair" x="726" y="771" width="7" height="7" rx="1"/>
<rect class="art-hair" x="738" y="759" width="7" height="7" rx="1"/>
<rect class="art-blue" x="940" y="759" width="7" height="7" rx="1"/>
<rect class="art-hair" x="738" y="771" width="7" height="7" rx="1"/>
<rect class="art-hair" x="750" y="771" width="7" height="7" rx="1"/>
<rect class="art-blue" x="952" y="771" width="7" height="7" rx="1"/>
<path class="art-hair" d="M941 781V812H920V831" />
<circle class="art-ink-soft" cx="920" cy="833" r="3"/>
<rect class="art-hair" x="714" y="835" width="7" height="7" rx="1"/>
<rect class="art-blue" x="916" y="835" width="7" height="7" rx="1"/>
<rect class="art-hair" x="714" y="847" width="7" height="7" rx="1"/>
<rect class="art-hair" x="714" y="859" width="7" height="7" rx="1"/>
<rect class="art-hair" x="714" y="871" width="7" height="7" rx="1"/>
<rect class="art-hair" x="726" y="847" width="7" height="7" rx="1"/>
<rect class="art-blue" x="928" y="847" width="7" height="7" rx="1"/>
<rect class="art-hair" x="726" y="859" width="7" height="7" rx="1"/>
<rect class="art-hair" x="726" y="871" width="7" height="7" rx="1"/>
<rect class="art-hair" x="738" y="859" width="7" height="7" rx="1"/>
<rect class="art-blue" x="940" y="859" width="7" height="7" rx="1"/>
<rect class="art-hair" x="738" y="871" width="7" height="7" rx="1"/>
<rect class="art-hair" x="750" y="871" width="7" height="7" rx="1"/>
<rect class="art-blue" x="952" y="871" width="7" height="7" rx="1"/>
<path class="art-hair" d="M941 881V912H920V931" />
<circle class="art-ink-soft" cx="920" cy="933" r="3"/>
<rect class="art-hair" x="714" y="935" width="7" height="7" rx="1"/>
<rect class="art-blue" x="916" y="935" width="7" height="7" rx="1"/>
<rect class="art-hair" x="714" y="947" width="7" height="7" rx="1"/>
<rect class="art-hair" x="714" y="959" width="7" height="7" rx="1"/>
<rect class="art-hair" x="714" y="971" width="7" height="7" rx="1"/>
<rect class="art-hair" x="726" y="947" width="7" height="7" rx="1"/>
<rect class="art-blue" x="928" y="947" width="7" height="7" rx="1"/>
<rect class="art-hair" x="726" y="959" width="7" height="7" rx="1"/>
<rect class="art-hair" x="726" y="971" width="7" height="7" rx="1"/>
<rect class="art-hair" x="738" y="959" width="7" height="7" rx="1"/>
<rect class="art-blue" x="940" y="959" width="7" height="7" rx="1"/>
<rect class="art-hair" x="738" y="971" width="7" height="7" rx="1"/>
<rect class="art-hair" x="750" y="971" width="7" height="7" rx="1"/>
<rect class="art-blue" x="952" y="971" width="7" height="7" rx="1"/>
<path class="art-hair" d="M941 981V1012H920V1031" />
<circle class="art-ink-soft" cx="920" cy="1033" r="3"/>
<rect class="art-hair" x="714" y="1035" width="7" height="7" rx="1"/>
<rect class="art-blue" x="916" y="1035" width="7" height="7" rx="1"/>
<rect class="art-hair" x="714" y="1047" width="7" height="7" rx="1"/>
<rect class="art-hair" x="714" y="1059" width="7" height="7" rx="1"/>
<rect class="art-hair" x="714" y="1071" width="7" height="7" rx="1"/>
<rect class="art-hair" x="726" y="1047" width="7" height="7" rx="1"/>
<rect class="art-blue" x="928" y="1047" width="7" height="7" rx="1"/>
<rect class="art-hair" x="726" y="1059" width="7" height="7" rx="1"/>
<rect class="art-hair" x="726" y="1071" width="7" height="7" rx="1"/>
<rect class="art-hair" x="738" y="1059" width="7" height="7" rx="1"/>
<rect class="art-blue" x="940" y="1059" width="7" height="7" rx="1"/>
<rect class="art-hair" x="738" y="1071" width="7" height="7" rx="1"/>
<rect class="art-hair" x="750" y="1071" width="7" height="7" rx="1"/>
<rect class="art-blue" x="952" y="1071" width="7" height="7" rx="1"/>
<path class="art-hair" d="M941 1081V1112H920V1131" />
<circle class="art-ink-soft" cx="920" cy="1133" r="3"/>
<rect class="art-hair" x="714" y="1135" width="7" height="7" rx="1"/>
<rect class="art-blue" x="916" y="1135" width="7" height="7" rx="1"/>
<rect class="art-hair" x="714" y="1147" width="7" height="7" rx="1"/>
<rect class="art-hair" x="714" y="1159" width="7" height="7" rx="1"/>
<rect class="art-hair" x="714" y="1171" width="7" height="7" rx="1"/>
<rect class="art-hair" x="726" y="1147" width="7" height="7" rx="1"/>
<rect class="art-blue" x="928" y="1147" width="7" height="7" rx="1"/>
<rect class="art-hair" x="726" y="1159" width="7" height="7" rx="1"/>
<rect class="art-hair" x="726" y="1171" width="7" height="7" rx="1"/>
<rect class="art-hair" x="738" y="1159" width="7" height="7" rx="1"/>
<rect class="art-blue" x="940" y="1159" width="7" height="7" rx="1"/>
<rect class="art-hair" x="738" y="1171" width="7" height="7" rx="1"/>
<rect class="art-hair" x="750" y="1171" width="7" height="7" rx="1"/>
<rect class="art-blue" x="952" y="1171" width="7" height="7" rx="1"/>
<path class="art-hair" d="M941 1181V1212H920V1231" />
<circle class="art-ink-soft" cx="920" cy="1233" r="3"/>
<rect class="art-hair" x="714" y="1235" width="7" height="7" rx="1"/>
<rect class="art-blue" x="916" y="1235" width="7" height="7" rx="1"/>
<rect class="art-hair" x="714" y="1247" width="7" height="7" rx="1"/>
<rect class="art-hair" x="714" y="1259" width="7" height="7" rx="1"/>
<rect class="art-hair" x="714" y="1271" width="7" height="7" rx="1"/>
<rect class="art-hair" x="726" y="1247" width="7" height="7" rx="1"/>
<rect class="art-blue" x="928" y="1247" width="7" height="7" rx="1"/>
<rect class="art-hair" x="726" y="1259" width="7" height="7" rx="1"/>
<rect class="art-hair" x="726" y="1271" width="7" height="7" rx="1"/>
<rect class="art-hair" x="738" y="1259" width="7" height="7" rx="1"/>
<rect class="art-blue" x="940" y="1259" width="7" height="7" rx="1"/>
<rect class="art-hair" x="738" y="1271" width="7" height="7" rx="1"/>
<rect class="art-hair" x="750" y="1271" width="7" height="7" rx="1"/>
<rect class="art-blue" x="952" y="1271" width="7" height="7" rx="1"/>
<path class="art-hair" d="M941 1281V1312H920V1331" />
<circle class="art-ink-soft" cx="920" cy="1333" r="3"/>
<rect class="art-hair" x="714" y="1335" width="7" height="7" rx="1"/>
<rect class="art-blue" x="916" y="1335" width="7" height="7" rx="1"/>
<rect class="art-hair" x="714" y="1347" width="7" height="7" rx="1"/>
<rect class="art-hair" x="714" y="1359" width="7" height="7" rx="1"/>
<rect class="art-hair" x="714" y="1371" width="7" height="7" rx="1"/>
<rect class="art-hair" x="726" y="1347" width="7" height="7" rx="1"/>
<rect class="art-blue" x="928" y="1347" width="7" height="7" rx="1"/>
<rect class="art-hair" x="726" y="1359" width="7" height="7" rx="1"/>
<rect class="art-hair" x="726" y="1371" width="7" height="7" rx="1"/>
<rect class="art-hair" x="738" y="1359" width="7" height="7" rx="1"/>
<rect class="art-blue" x="940" y="1359" width="7" height="7" rx="1"/>
<rect class="art-hair" x="738" y="1371" width="7" height="7" rx="1"/>
<rect class="art-hair" x="750" y="1371" width="7" height="7" rx="1"/>
<rect class="art-blue" x="952" y="1371" width="7" height="7" rx="1"/>
<path class="art-hair" d="M941 1381V1412H920V1431" />
<circle class="art-ink-soft" cx="920" cy="1433" r="3"/>
<rect class="art-hair" x="714" y="1435" width="7" height="7" rx="1"/>
<rect class="art-blue" x="916" y="1435" width="7" height="7" rx="1"/>
<rect class="art-hair" x="714" y="1447" width="7" height="7" rx="1"/>
<rect class="art-hair" x="714" y="1459" width="7" height="7" rx="1"/>
<rect class="art-hair" x="714" y="1471" width="7" height="7" rx="1"/>
<rect class="art-hair" x="726" y="1447" width="7" height="7" rx="1"/>
<rect class="art-blue" x="928" y="1447" width="7" height="7" rx="1"/>
<rect class="art-hair" x="726" y="1459" width="7" height="7" rx="1"/>
<rect class="art-hair" x="726" y="1471" width="7" height="7" rx="1"/>
<rect class="art-hair" x="738" y="1459" width="7" height="7" rx="1"/>
<rect class="art-blue" x="940" y="1459" width="7" height="7" rx="1"/>
<rect class="art-hair" x="738" y="1471" width="7" height="7" rx="1"/>
<rect class="art-hair" x="750" y="1471" width="7" height="7" rx="1"/>
<rect class="art-blue" x="952" y="1471" width="7" height="7" rx="1"/>
<path class="art-hair" d="M941 1481V1512H920V1531" />
<circle class="art-ink-soft" cx="920" cy="1533" r="3"/>
<rect class="art-hair" x="714" y="1535" width="7" height="7" rx="1"/>
<rect class="art-blue" x="916" y="1535" width="7" height="7" rx="1"/>
<rect class="art-hair" x="714" y="1547" width="7" height="7" rx="1"/>
<rect class="art-hair" x="714" y="1559" width="7" height="7" rx="1"/>
<rect class="art-hair" x="714" y="1571" width="7" height="7" rx="1"/>
<rect class="art-hair" x="726" y="1547" width="7" height="7" rx="1"/>
<rect class="art-blue" x="928" y="1547" width="7" height="7" rx="1"/>
<rect class="art-hair" x="726" y="1559" width="7" height="7" rx="1"/>
<rect class="art-hair" x="726" y="1571" width="7" height="7" rx="1"/>
<rect class="art-hair" x="738" y="1559" width="7" height="7" rx="1"/>
<rect class="art-blue" x="940" y="1559" width="7" height="7" rx="1"/>
<rect class="art-hair" x="738" y="1571" width="7" height="7" rx="1"/>
<rect class="art-hair" x="750" y="1571" width="7" height="7" rx="1"/>
<rect class="art-blue" x="952" y="1571" width="7" height="7" rx="1"/>
<path class="art-hair" d="M941 1581V1612H920V1631" />
<circle class="art-ink-soft" cx="920" cy="1633" r="3"/>
<rect class="art-hair" x="714" y="1635" width="7" height="7" rx="1"/>
<rect class="art-blue" x="916" y="1635" width="7" height="7" rx="1"/>
<rect class="art-hair" x="714" y="1647" width="7" height="7" rx="1"/>
<rect class="art-hair" x="714" y="1659" width="7" height="7" rx="1"/>
<rect class="art-hair" x="714" y="1671" width="7" height="7" rx="1"/>
<rect class="art-hair" x="726" y="1647" width="7" height="7" rx="1"/>
<rect class="art-blue" x="928" y="1647" width="7" height="7" rx="1"/>
<rect class="art-hair" x="726" y="1659" width="7" height="7" rx="1"/>
<rect class="art-hair" x="726" y="1671" width="7" height="7" rx="1"/>
<rect class="art-hair" x="738" y="1659" width="7" height="7" rx="1"/>
<rect class="art-blue" x="940" y="1659" width="7" height="7" rx="1"/>
<rect class="art-hair" x="738" y="1671" width="7" height="7" rx="1"/>
<rect class="art-hair" x="750" y="1671" width="7" height="7" rx="1"/>
<rect class="art-blue" x="952" y="1671" width="7" height="7" rx="1"/>
<path class="art-hair" d="M941 1681V1712H920V1731" />
<circle class="art-ink-soft" cx="920" cy="1733" r="3"/>
<rect class="art-hair" x="714" y="1735" width="7" height="7" rx="1"/>
<rect class="art-blue" x="916" y="1735" width="7" height="7" rx="1"/>
<rect class="art-hair" x="714" y="1747" width="7" height="7" rx="1"/>
<rect class="art-hair" x="714" y="1759" width="7" height="7" rx="1"/>
<rect class="art-hair" x="714" y="1771" width="7" height="7" rx="1"/>
<rect class="art-hair" x="726" y="1747" width="7" height="7" rx="1"/>
<rect class="art-blue" x="928" y="1747" width="7" height="7" rx="1"/>
<rect class="art-hair" x="726" y="1759" width="7" height="7" rx="1"/>
<rect class="art-hair" x="726" y="1771" width="7" height="7" rx="1"/>
<rect class="art-hair" x="738" y="1759" width="7" height="7" rx="1"/>
<rect class="art-blue" x="940" y="1759" width="7" height="7" rx="1"/>
<rect class="art-hair" x="738" y="1771" width="7" height="7" rx="1"/>
<rect class="art-hair" x="750" y="1771" width="7" height="7" rx="1"/>
<rect class="art-blue" x="952" y="1771" width="7" height="7" rx="1"/>
<path class="art-hair" d="M941 1781V1812H920V1831" />
<circle class="art-ink-soft" cx="920" cy="1833" r="3"/>
</g>
</defs>
<use href="#post-texture" transform="translate(0 -1800)"/>
<use href="#post-texture" transform="translate(0 0)"/>
<use href="#post-texture" transform="translate(0 1800)"/>
<g transform="translate(805 0)" opacity=".7">
<rect class="art-hair" x="-140" y="-53" width="11" height="11" rx="1"/>
<rect class="art-hair" x="-122" y="-53" width="11" height="11" rx="1"/>
<rect class="art-hair" x="-104" y="-53" width="11" height="11" rx="1"/>
<rect class="art-hair" x="-86" y="-53" width="11" height="11" rx="1"/>
<rect class="art-hair" x="-68" y="-53" width="11" height="11" rx="1"/>
<rect class="art-hair" x="-50" y="-53" width="11" height="11" rx="1"/>
<rect class="art-hair" x="-140" y="-35" width="11" height="11" rx="1"/>
<rect class="art-hair" x="-122" y="-35" width="11" height="11" rx="1"/>
<rect class="art-hair" x="-104" y="-35" width="11" height="11" rx="1"/>
<rect class="art-hair" x="-86" y="-35" width="11" height="11" rx="1"/>
<rect class="art-hair" x="-68" y="-35" width="11" height="11" rx="1"/>
<rect class="art-hair" x="-50" y="-35" width="11" height="11" rx="1"/>
<rect class="art-hair" x="-140" y="-17" width="11" height="11" rx="1"/>
<rect class="art-hair" x="-122" y="-17" width="11" height="11" rx="1"/>
<rect class="art-hair" x="-104" y="-17" width="11" height="11" rx="1"/>
<rect class="art-hair" x="-86" y="-17" width="11" height="11" rx="1"/>
<rect class="art-hair" x="-68" y="-17" width="11" height="11" rx="1"/>
<rect class="art-hair" x="-50" y="-17" width="11" height="11" rx="1"/>
<rect class="art-hair" x="-140" y="1" width="11" height="11" rx="1"/>
<rect class="art-hair" x="-122" y="1" width="11" height="11" rx="1"/>
<rect class="art-hair" x="-104" y="1" width="11" height="11" rx="1"/>
<rect class="art-hair" x="-86" y="1" width="11" height="11" rx="1"/>
<rect class="art-hair" x="-68" y="1" width="11" height="11" rx="1"/>
<rect class="art-hair" x="-50" y="1" width="11" height="11" rx="1"/>
<rect class="art-hair" x="-140" y="19" width="11" height="11" rx="1"/>
<rect class="art-hair" x="-122" y="19" width="11" height="11" rx="1"/>
<rect class="art-hair" x="-104" y="19" width="11" height="11" rx="1"/>
<rect class="art-hair" x="-86" y="19" width="11" height="11" rx="1"/>
<rect class="art-hair" x="-68" y="19" width="11" height="11" rx="1"/>
<rect class="art-hair" x="-50" y="19" width="11" height="11" rx="1"/>
<rect class="art-hair" x="-140" y="37" width="11" height="11" rx="1"/>
<rect class="art-hair" x="-122" y="37" width="11" height="11" rx="1"/>
<rect class="art-hair" x="-104" y="37" width="11" height="11" rx="1"/>
<rect class="art-hair" x="-86" y="37" width="11" height="11" rx="1"/>
<rect class="art-hair" x="-68" y="37" width="11" height="11" rx="1"/>
<rect class="art-hair" x="-50" y="37" width="11" height="11" rx="1"/>
<rect class="art-blue" x="35" y="-53" width="11" height="11" rx="1"/>
<rect class="art-blue" x="53" y="-53" width="11" height="11" rx="1"/>
<rect class="art-blue" x="35" y="-35" width="11" height="11" rx="1"/>
<rect class="art-blue" x="53" y="-35" width="11" height="11" rx="1"/>
<rect class="art-blue" x="71" y="-35" width="11" height="11" rx="1"/>
<rect class="art-blue" x="35" y="-17" width="11" height="11" rx="1"/>
<rect class="art-blue" x="53" y="-17" width="11" height="11" rx="1"/>
<rect class="art-blue" x="71" y="-17" width="11" height="11" rx="1"/>
<rect class="art-blue" x="89" y="-17" width="11" height="11" rx="1"/>
<rect class="art-blue" x="35" y="1" width="11" height="11" rx="1"/>
<rect class="art-blue" x="71" y="1" width="11" height="11" rx="1"/>
<rect class="art-blue" x="89" y="1" width="11" height="11" rx="1"/>
<rect class="art-blue" x="107" y="1" width="11" height="11" rx="1"/>
<rect class="art-blue" x="35" y="19" width="11" height="11" rx="1"/>
<rect class="art-blue" x="89" y="19" width="11" height="11" rx="1"/>
<rect class="art-blue" x="107" y="19" width="11" height="11" rx="1"/>
<rect class="art-blue" x="125" y="19" width="11" height="11" rx="1"/>
<rect class="art-blue" x="35" y="37" width="11" height="11" rx="1"/>
<rect class="art-blue" x="107" y="37" width="11" height="11" rx="1"/>
<rect class="art-blue" x="125" y="37" width="11" height="11" rx="1"/>
<path class="art-blue" d="M-5 0L23 0" /><path class="art-blue" d="M15.80 3.48L23 0L15.80 -3.48" />
</g>
<g transform="translate(805 595)" opacity=".7">
<rect class="art-ink-soft" x="-148" y="-29" width="52" height="58" rx="5"/>
<circle class="art-ink-soft" cx="-122" cy="0" r="5"/>
<path class="art-blue" d="M-142 -77L-142 -36" /><path class="art-blue" d="M-145.48 -43.20L-142 -36L-138.52 -43.20" />
<rect class="art-ink-soft" x="-66" y="-29" width="52" height="58" rx="5"/>
<circle class="art-ink-soft" cx="-40" cy="0" r="5"/>
<path class="art-blue" d="M-60 -77L-60 -36" /><path class="art-blue" d="M-63.48 -43.20L-60 -36L-56.52 -43.20" />
<rect class="art-ink-soft" x="16" y="-29" width="52" height="58" rx="5"/>
<circle class="art-ink-soft" cx="42" cy="0" r="5"/>
<path class="art-blue" d="M22 -77L22 -36" /><path class="art-blue" d="M18.52 -43.20L22 -36L25.48 -43.20" />
<rect class="art-ink-soft" x="98" y="-29" width="52" height="58" rx="5"/>
<circle class="art-ink-soft" cx="124" cy="0" r="5"/>
<path class="art-blue" d="M104 -77L104 -36" /><path class="art-blue" d="M100.52 -43.20L104 -36L107.48 -43.20" />
<path class="art-blue" d="M-96 0L-69 0" /><path class="art-blue" d="M-76.20 3.48L-69 0L-76.20 -3.48" />
<path class="art-blue" d="M-14 0L13 0" /><path class="art-blue" d="M5.80 3.48L13 0L5.80 -3.48" />
<path class="art-blue" d="M68 0L95 0" /><path class="art-blue" d="M87.80 3.48L95 0L87.80 -3.48" />
<path class="art-gold" d="M124 29V62H-122V29" />
</g>
<g transform="translate(805 1190)" opacity=".7">
<circle class="art-gold" cx="0" cy="-47" r="17"/>
<path class="art-blue" d="M0-30V-9H-107V38M0-9H107V38" />
<rect class="art-ink-soft" x="-135" y="38" width="56" height="32" rx="5"/>
<rect class="art-ink-soft" x="-28" y="38" width="56" height="32" rx="5"/>
<rect class="art-ink-soft" x="79" y="38" width="56" height="32" rx="5"/>
<path class="art-hair" d="M0 -9L0 38" />
<path class="art-hair" d="M-129 81H129" />
</g>
<g transform="translate(805 1800)" opacity=".7">
<rect class="art-hair" x="-140" y="-53" width="11" height="11" rx="1"/>
<rect class="art-hair" x="-122" y="-53" width="11" height="11" rx="1"/>
<rect class="art-hair" x="-104" y="-53" width="11" height="11" rx="1"/>
<rect class="art-hair" x="-86" y="-53" width="11" height="11" rx="1"/>
<rect class="art-hair" x="-68" y="-53" width="11" height="11" rx="1"/>
<rect class="art-hair" x="-50" y="-53" width="11" height="11" rx="1"/>
<rect class="art-hair" x="-140" y="-35" width="11" height="11" rx="1"/>
<rect class="art-hair" x="-122" y="-35" width="11" height="11" rx="1"/>
<rect class="art-hair" x="-104" y="-35" width="11" height="11" rx="1"/>
<rect class="art-hair" x="-86" y="-35" width="11" height="11" rx="1"/>
<rect class="art-hair" x="-68" y="-35" width="11" height="11" rx="1"/>
<rect class="art-hair" x="-50" y="-35" width="11" height="11" rx="1"/>
<rect class="art-hair" x="-140" y="-17" width="11" height="11" rx="1"/>
<rect class="art-hair" x="-122" y="-17" width="11" height="11" rx="1"/>
<rect class="art-hair" x="-104" y="-17" width="11" height="11" rx="1"/>
<rect class="art-hair" x="-86" y="-17" width="11" height="11" rx="1"/>
<rect class="art-hair" x="-68" y="-17" width="11" height="11" rx="1"/>
<rect class="art-hair" x="-50" y="-17" width="11" height="11" rx="1"/>
<rect class="art-hair" x="-140" y="1" width="11" height="11" rx="1"/>
<rect class="art-hair" x="-122" y="1" width="11" height="11" rx="1"/>
<rect class="art-hair" x="-104" y="1" width="11" height="11" rx="1"/>
<rect class="art-hair" x="-86" y="1" width="11" height="11" rx="1"/>
<rect class="art-hair" x="-68" y="1" width="11" height="11" rx="1"/>
<rect class="art-hair" x="-50" y="1" width="11" height="11" rx="1"/>
<rect class="art-hair" x="-140" y="19" width="11" height="11" rx="1"/>
<rect class="art-hair" x="-122" y="19" width="11" height="11" rx="1"/>
<rect class="art-hair" x="-104" y="19" width="11" height="11" rx="1"/>
<rect class="art-hair" x="-86" y="19" width="11" height="11" rx="1"/>
<rect class="art-hair" x="-68" y="19" width="11" height="11" rx="1"/>
<rect class="art-hair" x="-50" y="19" width="11" height="11" rx="1"/>
<rect class="art-hair" x="-140" y="37" width="11" height="11" rx="1"/>
<rect class="art-hair" x="-122" y="37" width="11" height="11" rx="1"/>
<rect class="art-hair" x="-104" y="37" width="11" height="11" rx="1"/>
<rect class="art-hair" x="-86" y="37" width="11" height="11" rx="1"/>
<rect class="art-hair" x="-68" y="37" width="11" height="11" rx="1"/>
<rect class="art-hair" x="-50" y="37" width="11" height="11" rx="1"/>
<rect class="art-blue" x="35" y="-53" width="11" height="11" rx="1"/>
<rect class="art-blue" x="53" y="-53" width="11" height="11" rx="1"/>
<rect class="art-blue" x="35" y="-35" width="11" height="11" rx="1"/>
<rect class="art-blue" x="53" y="-35" width="11" height="11" rx="1"/>
<rect class="art-blue" x="71" y="-35" width="11" height="11" rx="1"/>
<rect class="art-blue" x="35" y="-17" width="11" height="11" rx="1"/>
<rect class="art-blue" x="53" y="-17" width="11" height="11" rx="1"/>
<rect class="art-blue" x="71" y="-17" width="11" height="11" rx="1"/>
<rect class="art-blue" x="89" y="-17" width="11" height="11" rx="1"/>
<rect class="art-blue" x="35" y="1" width="11" height="11" rx="1"/>
<rect class="art-blue" x="71" y="1" width="11" height="11" rx="1"/>
<rect class="art-blue" x="89" y="1" width="11" height="11" rx="1"/>
<rect class="art-blue" x="107" y="1" width="11" height="11" rx="1"/>
<rect class="art-blue" x="35" y="19" width="11" height="11" rx="1"/>
<rect class="art-blue" x="89" y="19" width="11" height="11" rx="1"/>
<rect class="art-blue" x="107" y="19" width="11" height="11" rx="1"/>
<rect class="art-blue" x="125" y="19" width="11" height="11" rx="1"/>
<rect class="art-blue" x="35" y="37" width="11" height="11" rx="1"/>
<rect class="art-blue" x="107" y="37" width="11" height="11" rx="1"/>
<rect class="art-blue" x="125" y="37" width="11" height="11" rx="1"/>
<path class="art-blue" d="M-5 0L23 0" /><path class="art-blue" d="M15.80 3.48L23 0L15.80 -3.48" />
</g>
<g transform="translate(805 295)" opacity=".85">
<rect class="art-ink-soft" x="-164" y="-114" width="153" height="153" rx="4" />
<rect class="art-blue" x="-155" y="-105" width="11" height="11" rx="1" />
<rect class="art-blue" x="-155" y="-85" width="11" height="11" rx="1" />
<rect class="art-blue" x="-135" y="-85" width="11" height="11" rx="1" />
<rect class="art-blue" x="-155" y="-65" width="11" height="11" rx="1" />
<rect class="art-blue" x="-135" y="-65" width="11" height="11" rx="1" />
<rect class="art-blue" x="-115" y="-65" width="11" height="11" rx="1" />
<rect class="art-blue" x="-155" y="-45" width="11" height="11" rx="1" />
<rect class="art-blue" x="-135" y="-45" width="11" height="11" rx="1" />
<rect class="art-blue" x="-115" y="-45" width="11" height="11" rx="1" />
<rect class="art-blue" x="-95" y="-45" width="11" height="11" rx="1" />
<rect class="art-blue" x="-155" y="-25" width="11" height="11" rx="1" />
<rect class="art-blue" x="-135" y="-25" width="11" height="11" rx="1" />
<rect class="art-blue" x="-115" y="-25" width="11" height="11" rx="1" />
<rect class="art-blue" x="-95" y="-25" width="11" height="11" rx="1" />
<rect class="art-blue" x="-75" y="-25" width="11" height="11" rx="1" />
<rect class="art-blue" x="-155" y="-5" width="11" height="11" rx="1" />
<rect class="art-blue" x="-135" y="-5" width="11" height="11" rx="1" />
<rect class="art-blue" x="-115" y="-5" width="11" height="11" rx="1" />
<rect class="art-blue" x="-95" y="-5" width="11" height="11" rx="1" />
<rect class="art-blue" x="-75" y="-5" width="11" height="11" rx="1" />
<rect class="art-blue" x="-55" y="-5" width="11" height="11" rx="1" />
<rect class="art-blue" x="-155" y="15" width="11" height="11" rx="1" />
<rect class="art-blue" x="-135" y="15" width="11" height="11" rx="1" />
<rect class="art-blue" x="-115" y="15" width="11" height="11" rx="1" />
<rect class="art-blue" x="-95" y="15" width="11" height="11" rx="1" />
<rect class="art-blue" x="-75" y="15" width="11" height="11" rx="1" />
<rect class="art-blue" x="-55" y="15" width="11" height="11" rx="1" />
<rect class="art-blue" x="-35" y="15" width="11" height="11" rx="1" />
<rect class="art-ink-soft" x="28" y="-114" width="153" height="153" rx="4" />
<rect class="art-blue" x="37" y="-105" width="11" height="11" rx="1" />
<rect class="art-blue" x="57" y="-85" width="11" height="11" rx="1" />
<rect class="art-blue" x="77" y="-65" width="11" height="11" rx="1" />
<rect class="art-blue" x="57" y="-45" width="11" height="11" rx="1" />
<rect class="art-blue" x="97" y="-45" width="11" height="11" rx="1" />
<rect class="art-blue" x="37" y="-25" width="11" height="11" rx="1" />
<rect class="art-blue" x="117" y="-25" width="11" height="11" rx="1" />
<rect class="art-blue" x="97" y="-5" width="11" height="11" rx="1" />
<rect class="art-blue" x="137" y="-5" width="11" height="11" rx="1" />
<rect class="art-blue" x="77" y="15" width="11" height="11" rx="1" />
<rect class="art-blue" x="157" y="15" width="11" height="11" rx="1" />
<path class="art-blue" d="M-5 -43L22 -43" /><path class="art-blue" d="M13.9 -39.1L22 -43L13.9 -46.9" />
<path class="art-gold" d="M-146 94C-22 166 57 104 150 146" />
</g>
<g transform="translate(805 890)" opacity=".85">
<rect class="art-ink" x="-156" y="-55" width="65" height="84" rx="7" />
<circle class="art-dot" cx="-140" cy="-13" r="2.5" /><circle class="art-dot" cx="-124" cy="-13" r="2.5" /><circle class="art-dot" cx="-108" cy="-13" r="2.5" />
<path class="art-blue" d="M-91 -13L-67 -13" /><path class="art-blue" d="M-75.1 -9.1L-67 -13L-75.1 -16.9" />
<path class="art-hair" d="M-124-127V-55" />
<circle class="art-ink" cx="-124" cy="-146" r="12" />
<rect class="art-ink" x="-61" y="-55" width="65" height="84" rx="7" />
<circle class="art-dot" cx="-45" cy="-13" r="2.5" /><circle class="art-dot" cx="-29" cy="-13" r="2.5" /><circle class="art-dot" cx="-13" cy="-13" r="2.5" />
<path class="art-blue" d="M4 -13L28 -13" /><path class="art-blue" d="M19.9 -9.1L28 -13L19.9 -16.9" />
<path class="art-hair" d="M-29-127V-55" />
<circle class="art-ink" cx="-29" cy="-146" r="12" />
<rect class="art-ink" x="34" y="-55" width="65" height="84" rx="7" />
<circle class="art-dot" cx="50" cy="-13" r="2.5" /><circle class="art-dot" cx="66" cy="-13" r="2.5" /><circle class="art-dot" cx="82" cy="-13" r="2.5" />
<path class="art-blue" d="M99 -13L123 -13" /><path class="art-blue" d="M114.9 -9.1L123 -13L114.9 -16.9" />
<path class="art-hair" d="M66-127V-55" />
<circle class="art-ink" cx="66" cy="-146" r="12" />
<rect class="art-ink" x="129" y="-55" width="65" height="84" rx="7" />
<circle class="art-dot" cx="145" cy="-13" r="2.5" /><circle class="art-dot" cx="161" cy="-13" r="2.5" /><circle class="art-dot" cx="177" cy="-13" r="2.5" />
<path class="art-blue" d="M194 -13L218 -13" /><path class="art-blue" d="M209.9 -9.1L218 -13L209.9 -16.9" />
<path class="art-hair" d="M161-127V-55" />
<circle class="art-ink" cx="161" cy="-146" r="12" />
<path class="art-gold" d="M-124 29V103H131V29" />
<path class="art-hair" d="M-86 134h221" />
</g>
<g transform="translate(805 1490)" opacity=".85">
<path class="art-ink-soft" d="M-145 -120V110H140" />
<path class="art-blue" d="M-141 104L137-41" />
<path class="art-gold" d="M-141 104C-33 84 76 13 137-143" />
<path class="art-hair" d="M-118 110L-118 118" />
<path class="art-hair" d="M-63 110L-63 118" />
<path class="art-hair" d="M-8 110L-8 118" />
<path class="art-hair" d="M47 110L47 118" />
<path class="art-hair" d="M102 110L102 118" />
<path class="art-ink-soft" d="M-80-128l17-17 17 17-17 17Z" />
<path class="art-hair" d="M-63-111V5" stroke-dasharray="5 7" />
</g>
</svg>
