<svg xmlns="http://www.w3.org/2000/svg" width="1000" height="1800" viewBox="0 0 1000 1800" fill="none"><style>.art-ink,
.art-ink-soft,
.art-hair,
.art-blue,
.art-gold {
  fill: none;
  vector-effect: non-scaling-stroke;
  stroke-linecap: round;
  stroke-linejoin: round;
}

.art-ink {
  stroke: rgba(38, 48, 62, .42);
  stroke-width: 1.6;
}

.art-ink-soft {
  stroke: rgba(38, 48, 62, .22);
  stroke-width: 1.2;
}

/* Hairline filigree — the finest lines (tree-rings, arcs, contours). */
.art-hair {
  stroke: rgba(38, 48, 62, .22);
  stroke-width: 0.6;
}

.art-blue, .art-gold {
  stroke-width: 1.2;
  stroke-opacity: .55;
}

.art-blue { stroke: #5a82be; }
.art-gold { stroke: #b28945; }

.art-fill-ink {
  fill: rgba(38, 48, 62, .42);
  stroke: none;
}

/* Stipple dots for organic growth. */
.art-dot {
  fill: rgba(38, 48, 62, .22);
  stroke: none;
}</style>
<!-- Stripe tasks / moving feature coordinates / accuracy-retention frontier -->
<g transform="translate(0 0)" opacity=".65">
<path class="art-hair" d="M805 0C805 108 883 153 846 353S737 536 792 675S879 839 831 1001S725 1246 783 1432S805 1685 805 1800" />
</g>
<g transform="translate(12 0)" opacity=".35">
<path class="art-hair" d="M805 0C805 108 883 153 846 353S737 536 792 675S879 839 831 1001S725 1246 783 1432S805 1685 805 1800" />
</g>
<g transform="translate(805 68)" opacity=".55">
<circle class="art-ink-soft" cx="0" cy="0" r="5" />
<path class="art-hair" d="M-22 0L-8 0" />
<path class="art-hair" d="M8 0L22 0" />
<circle class="art-dot" cx="-15" cy="20" r="2.5" /><circle class="art-dot" cx="0" cy="20" r="2.5" /><circle class="art-dot" cx="15" cy="20" r="2.5" />
</g>
<g transform="translate(805 610)" opacity=".55">
<circle class="art-ink-soft" cx="0" cy="0" r="5" />
<path class="art-hair" d="M-22 0L-8 0" />
<path class="art-hair" d="M8 0L22 0" />
<circle class="art-dot" cx="-15" cy="20" r="2.5" /><circle class="art-dot" cx="0" cy="20" r="2.5" /><circle class="art-dot" cx="15" cy="20" r="2.5" />
</g>
<g transform="translate(805 1180)" opacity=".55">
<circle class="art-ink-soft" cx="0" cy="0" r="5" />
<path class="art-hair" d="M-22 0L-8 0" />
<path class="art-hair" d="M8 0L22 0" />
<circle class="art-dot" cx="-15" cy="20" r="2.5" /><circle class="art-dot" cx="0" cy="20" r="2.5" /><circle class="art-dot" cx="15" cy="20" r="2.5" />
</g>
<g transform="translate(805 1740)" opacity=".55">
<circle class="art-ink-soft" cx="0" cy="0" r="5" />
<path class="art-hair" d="M-22 0L-8 0" />
<path class="art-hair" d="M8 0L22 0" />
<circle class="art-dot" cx="-15" cy="20" r="2.5" /><circle class="art-dot" cx="0" cy="20" r="2.5" /><circle class="art-dot" cx="15" cy="20" r="2.5" />
</g>
<g transform="translate(805 295)" opacity=".85">
<g transform="translate(-96 0)">
<rect class="art-ink-soft" x="-67" y="-99" width="134" height="198" rx="7" />
<g transform="rotate(-17)">
<path class="art-blue" d="M-42 -63L42 -63" />
<path class="art-blue" d="M-42 -45L42 -45" />
<path class="art-blue" d="M-42 -27L42 -27" />
<path class="art-blue" d="M-42 -9L42 -9" />
<path class="art-blue" d="M-42 9L42 9" />
<path class="art-blue" d="M-42 27L42 27" />
<path class="art-blue" d="M-42 45L42 45" />
<path class="art-blue" d="M-42 63L42 63" />
</g>
</g>
<g transform="translate(96 0)">
<rect class="art-ink-soft" x="-67" y="-99" width="134" height="198" rx="7" />
<g transform="rotate(25)">
<path class="art-blue" d="M-42 -63L42 -63" />
<path class="art-blue" d="M-42 -45L42 -45" />
<path class="art-blue" d="M-42 -27L42 -27" />
<path class="art-blue" d="M-42 -9L42 -9" />
<path class="art-blue" d="M-42 9L42 9" />
<path class="art-blue" d="M-42 27L42 27" />
<path class="art-blue" d="M-42 45L42 45" />
<path class="art-blue" d="M-42 63L42 63" />
</g>
</g>
<path class="art-gold" d="M-27-138C-8-164 8-164 28-138m0 0-2-14m2 14-14-4" />
</g>
<g transform="translate(805 890)" opacity=".85">
<path class="art-ink-soft" d="M-145 -120V110H140" />
<path class="art-hair" d="M-132 98L116-98M-132 98L112 79" />
<path class="art-blue" d="M-132 98L56-139M-132 98L149 13" />
<circle class="art-ink" cx="-54" cy="45" r="5" />
<circle class="art-ink" cx="-12" cy="12" r="5" />
<circle class="art-ink" cx="32" cy="-24" r="5" />
<circle class="art-ink" cx="76" cy="-57" r="5" />
<circle class="art-ink" cx="118" cy="-92" r="5" />
<path class="art-gold" d="M-54 45Q-38-1-17-49M32-24Q18-65 12-100M118-92Q94-122 82-146" />
</g>
<g transform="translate(805 1490)" opacity=".85">
<path class="art-ink-soft" d="M-145 -120V110H140" />
<path class="art-blue" d="M-124-112C-104-66-35 9 45 66S105 94 137 102" />
<path class="art-hair" d="M-124-83C-75-26-13 63 137 117" stroke-dasharray="4 7"/>
<circle class="art-ink" cx="-116" cy="-94" r="5" />
<path class="art-hair" d="M-116 -94L-116 110" opacity=".5"/>
<circle class="art-ink" cx="-74" cy="-34" r="5" />
<path class="art-hair" d="M-74 -34L-74 110" opacity=".5"/>
<circle class="art-ink" cx="-20" cy="16" r="5" />
<path class="art-hair" d="M-20 16L-20 110" opacity=".5"/>
<circle class="art-ink" cx="41" cy="65" r="5" />
<path class="art-hair" d="M41 65L41 110" opacity=".5"/>
<circle class="art-ink" cx="111" cy="95" r="5" />
<path class="art-hair" d="M111 95L111 110" opacity=".5"/>
</g>
</svg>
