<svg xmlns="http://www.w3.org/2000/svg" width="1000" height="1800" viewBox="0 0 1000 1800" fill="none"><style>.art-ink,
.art-ink-soft,
.art-hair,
.art-blue,
.art-gold {
  fill: none;
  vector-effect: non-scaling-stroke;
  stroke-linecap: round;
  stroke-linejoin: round;
}

.art-ink {
  stroke: rgba(38, 48, 62, .42);
  stroke-width: 1.6;
}

.art-ink-soft {
  stroke: rgba(38, 48, 62, .22);
  stroke-width: 1.2;
}

/* Hairline filigree — the finest lines (tree-rings, arcs, contours). */
.art-hair {
  stroke: rgba(38, 48, 62, .22);
  stroke-width: 0.6;
}

.art-blue, .art-gold {
  stroke-width: 1.2;
  stroke-opacity: .55;
}

.art-blue { stroke: #5a82be; }
.art-gold { stroke: #b28945; }

.art-fill-ink {
  fill: rgba(38, 48, 62, .42);
  stroke: none;
}

/* Stipple dots for organic growth. */
.art-dot {
  fill: rgba(38, 48, 62, .22);
  stroke: none;
}</style>
<!-- Task covariance ellipses / interfering feature spaces / protected and free update components -->
<g transform="translate(0 0)" opacity=".65">
<path class="art-hair" d="M805 0C805 111 744 173 773 337S888 514 827 651S742 834 793 1019S883 1244 822 1420S805 1689 805 1800" />
</g>
<g transform="translate(12 0)" opacity=".35">
<path class="art-hair" d="M805 0C805 111 744 173 773 337S888 514 827 651S742 834 793 1019S883 1244 822 1420S805 1689 805 1800" />
</g>
<g transform="translate(805 68)" opacity=".55">
<circle class="art-ink-soft" cx="0" cy="0" r="5" />
<path class="art-hair" d="M-22 0L-8 0" />
<path class="art-hair" d="M8 0L22 0" />
<circle class="art-dot" cx="-15" cy="20" r="2.5" /><circle class="art-dot" cx="0" cy="20" r="2.5" /><circle class="art-dot" cx="15" cy="20" r="2.5" />
</g>
<g transform="translate(805 610)" opacity=".55">
<circle class="art-ink-soft" cx="0" cy="0" r="5" />
<path class="art-hair" d="M-22 0L-8 0" />
<path class="art-hair" d="M8 0L22 0" />
<circle class="art-dot" cx="-15" cy="20" r="2.5" /><circle class="art-dot" cx="0" cy="20" r="2.5" /><circle class="art-dot" cx="15" cy="20" r="2.5" />
</g>
<g transform="translate(805 1180)" opacity=".55">
<circle class="art-ink-soft" cx="0" cy="0" r="5" />
<path class="art-hair" d="M-22 0L-8 0" />
<path class="art-hair" d="M8 0L22 0" />
<circle class="art-dot" cx="-15" cy="20" r="2.5" /><circle class="art-dot" cx="0" cy="20" r="2.5" /><circle class="art-dot" cx="15" cy="20" r="2.5" />
</g>
<g transform="translate(805 1740)" opacity=".55">
<circle class="art-ink-soft" cx="0" cy="0" r="5" />
<path class="art-hair" d="M-22 0L-8 0" />
<path class="art-hair" d="M8 0L22 0" />
<circle class="art-dot" cx="-15" cy="20" r="2.5" /><circle class="art-dot" cx="0" cy="20" r="2.5" /><circle class="art-dot" cx="15" cy="20" r="2.5" />
</g>
<g transform="translate(805 295)" opacity=".85">
<ellipse class="art-ink-soft" cx="0" cy="0" rx="159" ry="73.14" transform="rotate(-26 0 0)"/>
<ellipse class="art-ink-soft" cx="0" cy="0" rx="121" ry="55.660000000000004" transform="rotate(-26 0 0)"/>
<ellipse class="art-ink-soft" cx="0" cy="0" rx="81" ry="37.260000000000005" transform="rotate(-26 0 0)"/>
<ellipse class="art-ink-soft" cx="0" cy="0" rx="42" ry="19.32" transform="rotate(-26 0 0)"/>
<path class="art-blue" d="M0 0L134 -62" /><path class="art-blue" d="M128.3 -55.0L134 -62L125.0 -62.1" />
<path class="art-gold" d="M0 0L32 92" /><path class="art-gold" d="M25.6 85.6L32 92L33.0 83.1" />
<path class="art-hair" d="M134-62L166 30 32 92" stroke-dasharray="5 7"/>
<path class="art-blue" d="M0 0L166 30" /><path class="art-blue" d="M157.3 32.4L166 30L158.7 24.7" />
<circle class="art-fill-ink" cx="0" cy="0" r="5" />
</g>
<g transform="translate(805 890)" opacity=".85">
<path class="art-ink-soft" d="M-162 66L-52-89 156-48 46 109Z" />
<path class="art-ink-soft" d="M-142-57L-56 117 158 56 72-118Z" />
<path class="art-blue" d="M-52-89L46 109M72-118L-56 117" />
<path class="art-gold" d="M-143 130L160-117" />
</g>
<g transform="translate(805 1490)" opacity=".85">
<path class="art-ink-soft" d="M-145 -120V110H140" />
<ellipse class="art-ink-soft" cx="0" cy="0" rx="109" ry="56.68" transform="rotate(-28 0 0)"/>
<ellipse class="art-ink-soft" cx="0" cy="0" rx="71" ry="36.92" transform="rotate(-28 0 0)"/>
<ellipse class="art-ink-soft" cx="0" cy="0" rx="34" ry="17.68" transform="rotate(-28 0 0)"/>
<path class="art-blue" d="M-79 72L86 -61" /><path class="art-blue" d="M82.1 -52.9L86 -61L77.2 -59.0" />
<path class="art-hair" d="M86-61L128 16-37 149" stroke-dasharray="5 7"/>
<path class="art-gold" d="M-79 72L-37 149" /><path class="art-gold" d="M-44.3 143.8L-37 149L-37.4 140.0" />
<path class="art-ink-soft" d="M-50 108l22-11 11 21" />
<circle class="art-blue" cx="128" cy="16" r="7" />
</g>
</svg>
