<svg xmlns="http://www.w3.org/2000/svg" width="1000" height="1800" viewBox="0 0 1000 1800" fill="none"><style>.art-ink,
.art-ink-soft,
.art-hair,
.art-blue,
.art-gold {
  fill: none;
  vector-effect: non-scaling-stroke;
  stroke-linecap: round;
  stroke-linejoin: round;
}

.art-ink {
  stroke: rgba(38, 48, 62, .42);
  stroke-width: 1.6;
}

.art-ink-soft {
  stroke: rgba(38, 48, 62, .22);
  stroke-width: 1.2;
}

/* Hairline filigree — the finest lines (tree-rings, arcs, contours). */
.art-hair {
  stroke: rgba(38, 48, 62, .22);
  stroke-width: 0.6;
}

.art-blue, .art-gold {
  stroke-width: 1.2;
  stroke-opacity: .55;
}

.art-blue { stroke: #5a82be; }
.art-gold { stroke: #b28945; }

.art-fill-ink {
  fill: rgba(38, 48, 62, .42);
  stroke: none;
}

/* Stipple dots for organic growth. */
.art-dot {
  fill: rgba(38, 48, 62, .22);
  stroke: none;
}</style>
<!-- Lithium filament and ceramic fracture / dandelion root pressure / critical growth barrier -->
<g transform="translate(0 0)" opacity=".65">
<path class="art-hair" d="M805 0C805 110 850 157 823 337S757 516 805 668S857 808 820 1027S745 1224 791 1437S805 1681 805 1800" />
</g>
<g transform="translate(12 0)" opacity=".35">
<path class="art-hair" d="M805 0C805 110 850 157 823 337S757 516 805 668S857 808 820 1027S745 1224 791 1437S805 1681 805 1800" />
</g>
<g transform="translate(805 68)" opacity=".55">
<circle class="art-ink-soft" cx="0" cy="0" r="5" />
<path class="art-hair" d="M-22 0L-8 0" />
<path class="art-hair" d="M8 0L22 0" />
<circle class="art-dot" cx="-15" cy="20" r="2.5" /><circle class="art-dot" cx="0" cy="20" r="2.5" /><circle class="art-dot" cx="15" cy="20" r="2.5" />
</g>
<g transform="translate(805 610)" opacity=".55">
<circle class="art-ink-soft" cx="0" cy="0" r="5" />
<path class="art-hair" d="M-22 0L-8 0" />
<path class="art-hair" d="M8 0L22 0" />
<circle class="art-dot" cx="-15" cy="20" r="2.5" /><circle class="art-dot" cx="0" cy="20" r="2.5" /><circle class="art-dot" cx="15" cy="20" r="2.5" />
</g>
<g transform="translate(805 1180)" opacity=".55">
<circle class="art-ink-soft" cx="0" cy="0" r="5" />
<path class="art-hair" d="M-22 0L-8 0" />
<path class="art-hair" d="M8 0L22 0" />
<circle class="art-dot" cx="-15" cy="20" r="2.5" /><circle class="art-dot" cx="0" cy="20" r="2.5" /><circle class="art-dot" cx="15" cy="20" r="2.5" />
</g>
<g transform="translate(805 1740)" opacity=".55">
<circle class="art-ink-soft" cx="0" cy="0" r="5" />
<path class="art-hair" d="M-22 0L-8 0" />
<path class="art-hair" d="M8 0L22 0" />
<circle class="art-dot" cx="-15" cy="20" r="2.5" /><circle class="art-dot" cx="0" cy="20" r="2.5" /><circle class="art-dot" cx="15" cy="20" r="2.5" />
</g>
<g transform="translate(805 295)" opacity=".85">
<rect class="art-ink-soft" x="-157" y="-126" width="312" height="251" rx="1" />
<path class="art-hair" d="M-157 -76L155 -76" />
<path class="art-hair" d="M-157 -23L155 -23" />
<path class="art-hair" d="M-157 34L155 34" />
<path class="art-hair" d="M-157 82L155 82" />
<path class="art-blue" d="M-12 127L-8 81 12 53 4 9 23-30 14-68 28-126M4 9L-43-17-66-65M-8 81L-72 54-96 19M23-30L81-71 103-112M12 53L66 24 103-7" />
<path class="art-gold" d="M28-126L13-96 31-59 11-35 32 9 17 53 8 88" />
<circle class="art-dot" cx="27" cy="-112" r="4" />
</g>
<g transform="translate(805 890)" opacity=".85">
<path class="art-ink-soft" d="M-159-40H-16L-1-24 17-40H159V17H31L13 33-8 17H-159Z" />
<path class="art-blue" d="M-1-24L-12 13 14 33 1 70 20 98 9 143M1 70L-56 98-79 137M20 98L75 135 103 147" />
<path class="art-ink" d="M0-26V-124" />
<path class="art-hair" d="M0 -127L60 -127" />
<circle class="art-dot" cx="60" cy="-127" r="2" />
<path class="art-hair" d="M0 -127L55.4328 -107.483" />
<circle class="art-dot" cx="55.4328" cy="-107.483" r="2" />
<path class="art-hair" d="M0 -127L42.4264 -90.9376" />
<circle class="art-dot" cx="42.4264" cy="-90.9376" r="2" />
<path class="art-hair" d="M0 -127L22.961 -79.8821" />
<circle class="art-dot" cx="22.961" cy="-79.8821" r="2" />
<path class="art-hair" d="M0 -127L3.67394e-15 -76" />
<circle class="art-dot" cx="3.67394e-15" cy="-76" r="2" />
<path class="art-hair" d="M0 -127L-22.961 -79.8821" />
<circle class="art-dot" cx="-22.961" cy="-79.8821" r="2" />
<path class="art-hair" d="M0 -127L-42.4264 -90.9376" />
<circle class="art-dot" cx="-42.4264" cy="-90.9376" r="2" />
<path class="art-hair" d="M0 -127L-55.4328 -107.483" />
<circle class="art-dot" cx="-55.4328" cy="-107.483" r="2" />
<path class="art-hair" d="M0 -127L-60 -127" />
<circle class="art-dot" cx="-60" cy="-127" r="2" />
<path class="art-hair" d="M0 -127L-55.4328 -146.517" />
<circle class="art-dot" cx="-55.4328" cy="-146.517" r="2" />
<path class="art-hair" d="M0 -127L-42.4264 -163.062" />
<circle class="art-dot" cx="-42.4264" cy="-163.062" r="2" />
<path class="art-hair" d="M0 -127L-22.961 -174.118" />
<circle class="art-dot" cx="-22.961" cy="-174.118" r="2" />
<path class="art-hair" d="M0 -127L-1.10218e-14 -178" />
<circle class="art-dot" cx="-1.10218e-14" cy="-178" r="2" />
<path class="art-hair" d="M0 -127L22.961 -174.118" />
<circle class="art-dot" cx="22.961" cy="-174.118" r="2" />
<path class="art-hair" d="M0 -127L42.4264 -163.062" />
<circle class="art-dot" cx="42.4264" cy="-163.062" r="2" />
<path class="art-hair" d="M0 -127L55.4328 -146.517" />
<circle class="art-dot" cx="55.4328" cy="-146.517" r="2" />
</g>
<g transform="translate(805 1490)" opacity=".85">
<path class="art-ink-soft" d="M-145 -120V110H140" />
<path class="art-gold" d="M-137 91C-98 80-89-97-19-102S85 87 139 91" />
<path class="art-hair" d="M-137 33H140" stroke-dasharray="5 6"/>
<circle class="art-blue" cx="70" cy="33" r="8" />
<path class="art-blue" d="M70 33V111" />
</g>
</svg>
