<svg xmlns="http://www.w3.org/2000/svg" class="cover-art" viewBox="0 0 1200 675" preserveAspectRatio="xMidYMid slice" role="img" aria-label="Three botanical ink fans unfold from a shared stem, with blue, ochre and terracotta probability marks">
<defs>
      <linearGradient id="jhSky" x1="0" y1="0" x2="0" y2="1"><stop offset="0%" stop-color="#eef1f5"/><stop offset="58%" stop-color="#ecebe2"/><stop offset="100%" stop-color="#e4dccb"/></linearGradient>
      <radialGradient id="jhBlue"><stop stop-color="#5a82be" stop-opacity=".26"/><stop offset="1" stop-color="#5a82be" stop-opacity="0"/></radialGradient>
      <radialGradient id="jhGold"><stop stop-color="#e0a94a" stop-opacity=".28"/><stop offset="1" stop-color="#e0a94a" stop-opacity="0"/></radialGradient>
    </defs>
    <rect width="1200" height="675" fill="url(#jhSky)"/>
    <ellipse cx="350" cy="255" rx="410" ry="320" fill="url(#jhBlue)"/>
    <ellipse cx="940" cy="290" rx="350" ry="310" fill="url(#jhGold)"/>
    <path d="M90 185 C180 68 403 130 430 261 C459 373 294 405 171 332 C78 278 54 233 90 185Z" fill="#5a82be" fill-opacity=".06"/>
    <path d="M699 124 C846 53 1066 138 1095 305 C1114 433 943 457 817 376 C690 295 635 171 699 124Z" fill="#c07a4a" fill-opacity=".05"/>
    <g fill="none" stroke="#33465e" stroke-linecap="round">
      <path d="M137 431 C261 420 300 342 410 315 C552 281 553 134 713 145 M410 315 C617 369 701 251 879 290 M410 315 C547 463 670 431 755 444" stroke-width="2.2" stroke-opacity=".64"/>
      <path d="M142 440 C264 432 313 356 422 326 C569 287 574 148 715 155 M422 326 C619 383 704 263 878 303 M422 326 C554 477 674 447 755 456" stroke-width=".85" stroke-opacity=".3"/>
      <path d="M99 270 Q508 71 1096 221 M96 303 Q520 125 1104 280 M110 336 Q533 182 1115 339" stroke-width=".8" stroke-opacity=".12"/>
    </g><g transform="translate(723 167)" fill="none" stroke="#2f6fb0"><path d="M0 20 Q-27.7 -28.2 -79.1 -28.1" stroke-opacity=".6" stroke-width="1.5"/><ellipse cx="-79.1" cy="-28.1" rx="10" ry="4.5" transform="rotate(-160.4 -79.1 -28.1)" fill="#2f6fb0" fill-opacity=".12" stroke-width="1"/><path d="M0 20 Q-20.4 -35.3 -58.3 -60.5" stroke-opacity=".6" stroke-width="1.5"/><ellipse cx="-58.3" cy="-60.5" rx="10" ry="4.5" transform="rotate(-133.9 -58.3 -60.5)" fill="#2f6fb0" fill-opacity=".12" stroke-width="1"/><path d="M0 20 Q-8.8 -39.6 -25.2 -80.1" stroke-opacity=".6" stroke-width="1.5"/><ellipse cx="-25.2" cy="-80.1" rx="10" ry="4.5" transform="rotate(-107.4 -25.2 -80.1)" fill="#2f6fb0" fill-opacity=".12" stroke-width="1"/><path d="M0 20 Q4.6 -40.2 13.2 -82.9" stroke-opacity=".6" stroke-width="1.5"/><ellipse cx="13.2" cy="-82.9" rx="10" ry="4.5" transform="rotate(-80.9 13.2 -82.9)" fill="#2f6fb0" fill-opacity=".12" stroke-width="1"/><path d="M0 20 Q17.1 -37.0 48.9 -68.3" stroke-opacity=".6" stroke-width="1.5"/><ellipse cx="48.9" cy="-68.3" rx="10" ry="4.5" transform="rotate(-54.4 48.9 -68.3)" fill="#2f6fb0" fill-opacity=".12" stroke-width="1"/><path d="M0 20 Q26.0 -30.7 74.2 -39.3" stroke-opacity=".6" stroke-width="1.5"/><ellipse cx="74.2" cy="-39.3" rx="10" ry="4.5" transform="rotate(-27.9 74.2 -39.3)" fill="#2f6fb0" fill-opacity=".12" stroke-width="1"/><path d="M0 20 Q29.4 -22.5 84.0 -2.1" stroke-opacity=".6" stroke-width="1.5"/><ellipse cx="84.0" cy="-2.1" rx="10" ry="4.5" transform="rotate(-1.4 84.0 -2.1)" fill="#2f6fb0" fill-opacity=".12" stroke-width="1"/><path d="M0 20 Q26.6 -14.2 76.1 35.6" stroke-opacity=".6" stroke-width="1.5"/><ellipse cx="76.1" cy="35.6" rx="10" ry="4.5" transform="rotate(25.1 76.1 35.6)" fill="#2f6fb0" fill-opacity=".12" stroke-width="1"/><path d="M0 20 Q18.3 -7.5 52.2 65.8" stroke-opacity=".6" stroke-width="1.5"/><ellipse cx="52.2" cy="65.8" rx="10" ry="4.5" transform="rotate(51.6 52.2 65.8)" fill="#2f6fb0" fill-opacity=".12" stroke-width="1"/><circle cy="20" r="7" fill="#2f6fb0" fill-opacity=".2" stroke-width="1.3"/></g><g transform="translate(909 308)" fill="none" stroke="#8d6850"><path d="M0 20 Q-36.3 -30.1 -103.6 -36.8" stroke-opacity=".6" stroke-width="1.5"/><ellipse cx="-103.6" cy="-36.8" rx="10" ry="4.5" transform="rotate(-160.4 -103.6 -36.8)" fill="#8d6850" fill-opacity=".12" stroke-width="1"/><path d="M0 20 Q-30.7 -36.6 -87.6 -66.6" stroke-opacity=".6" stroke-width="1.5"/><ellipse cx="-87.6" cy="-66.6" rx="10" ry="4.5" transform="rotate(-142.8 -87.6 -66.6)" fill="#8d6850" fill-opacity=".12" stroke-width="1"/><path d="M0 20 Q-22.1 -41.8 -63.2 -90.0" stroke-opacity=".6" stroke-width="1.5"/><ellipse cx="-63.2" cy="-90.0" rx="10" ry="4.5" transform="rotate(-125.1 -63.2 -90.0)" fill="#8d6850" fill-opacity=".12" stroke-width="1"/><path d="M0 20 Q-11.5 -45.1 -32.9 -104.9" stroke-opacity=".6" stroke-width="1.5"/><ellipse cx="-32.9" cy="-104.9" rx="10" ry="4.5" transform="rotate(-107.4 -32.9 -104.9)" fill="#8d6850" fill-opacity=".12" stroke-width="1"/><path d="M0 20 Q0.2 -46.2 0.5 -110.0" stroke-opacity=".6" stroke-width="1.5"/><ellipse cx="0.5" cy="-110.0" rx="10" ry="4.5" transform="rotate(-89.8 0.5 -110.0)" fill="#8d6850" fill-opacity=".12" stroke-width="1"/><path d="M0 20 Q11.8 -45.0 33.8 -104.7" stroke-opacity=".6" stroke-width="1.5"/><ellipse cx="33.8" cy="-104.7" rx="10" ry="4.5" transform="rotate(-72.1 33.8 -104.7)" fill="#8d6850" fill-opacity=".12" stroke-width="1"/><path d="M0 20 Q22.4 -41.7 64.0 -89.5" stroke-opacity=".6" stroke-width="1.5"/><ellipse cx="64.0" cy="-89.5" rx="10" ry="4.5" transform="rotate(-54.4 64.0 -89.5)" fill="#8d6850" fill-opacity=".12" stroke-width="1"/><path d="M0 20 Q30.8 -36.5 88.1 -65.8" stroke-opacity=".6" stroke-width="1.5"/><ellipse cx="88.1" cy="-65.8" rx="10" ry="4.5" transform="rotate(-36.8 88.1 -65.8)" fill="#8d6850" fill-opacity=".12" stroke-width="1"/><path d="M0 20 Q36.4 -29.9 103.9 -36.0" stroke-opacity=".6" stroke-width="1.5"/><ellipse cx="103.9" cy="-36.0" rx="10" ry="4.5" transform="rotate(-19.1 103.9 -36.0)" fill="#8d6850" fill-opacity=".12" stroke-width="1"/><path d="M0 20 Q38.5 -22.6 110.0 -2.7" stroke-opacity=".6" stroke-width="1.5"/><ellipse cx="110.0" cy="-2.7" rx="10" ry="4.5" transform="rotate(-1.4 110.0 -2.7)" fill="#8d6850" fill-opacity=".12" stroke-width="1"/><path d="M0 20 Q37.0 -15.2 105.6 30.8" stroke-opacity=".6" stroke-width="1.5"/><ellipse cx="105.6" cy="30.8" rx="10" ry="4.5" transform="rotate(16.2 105.6 30.8)" fill="#8d6850" fill-opacity=".12" stroke-width="1"/><path d="M0 20 Q32.0 -8.5 91.3 61.4" stroke-opacity=".6" stroke-width="1.5"/><ellipse cx="91.3" cy="61.4" rx="10" ry="4.5" transform="rotate(33.9 91.3 61.4)" fill="#8d6850" fill-opacity=".12" stroke-width="1"/><path d="M0 20 Q23.9 -3.0 68.4 86.2" stroke-opacity=".6" stroke-width="1.5"/><ellipse cx="68.4" cy="86.2" rx="10" ry="4.5" transform="rotate(51.6 68.4 86.2)" fill="#8d6850" fill-opacity=".12" stroke-width="1"/><circle cy="20" r="7" fill="#8d6850" fill-opacity=".2" stroke-width="1.3"/></g><g transform="translate(766 453)" fill="none" stroke="#b26351"><path d="M0 20 Q-22.4 -27.0 -64.1 -22.8" stroke-opacity=".6" stroke-width="1.5"/><ellipse cx="-64.1" cy="-22.8" rx="10" ry="4.5" transform="rotate(-160.4 -64.1 -22.8)" fill="#b26351" fill-opacity=".12" stroke-width="1"/><path d="M0 20 Q-13.7 -34.2 -39.1 -55.6" stroke-opacity=".6" stroke-width="1.5"/><ellipse cx="-39.1" cy="-55.6" rx="10" ry="4.5" transform="rotate(-125.1 -39.1 -55.6)" fill="#b26351" fill-opacity=".12" stroke-width="1"/><path d="M0 20 Q0.1 -37.0 0.3 -68.0" stroke-opacity=".6" stroke-width="1.5"/><ellipse cx="0.3" cy="-68.0" rx="10" ry="4.5" transform="rotate(-89.8 0.3 -68.0)" fill="#b26351" fill-opacity=".12" stroke-width="1"/><path d="M0 20 Q13.8 -34.2 39.6 -55.3" stroke-opacity=".6" stroke-width="1.5"/><ellipse cx="39.6" cy="-55.3" rx="10" ry="4.5" transform="rotate(-54.4 39.6 -55.3)" fill="#b26351" fill-opacity=".12" stroke-width="1"/><path d="M0 20 Q22.5 -26.9 64.3 -22.2" stroke-opacity=".6" stroke-width="1.5"/><ellipse cx="64.3" cy="-22.2" rx="10" ry="4.5" transform="rotate(-19.1 64.3 -22.2)" fill="#b26351" fill-opacity=".12" stroke-width="1"/><path d="M0 20 Q22.9 -17.8 65.3 19.0" stroke-opacity=".6" stroke-width="1.5"/><ellipse cx="65.3" cy="19.0" rx="10" ry="4.5" transform="rotate(16.2 65.3 19.0)" fill="#b26351" fill-opacity=".12" stroke-width="1"/><path d="M0 20 Q14.8 -10.3 42.3 53.3" stroke-opacity=".6" stroke-width="1.5"/><ellipse cx="42.3" cy="53.3" rx="10" ry="4.5" transform="rotate(51.6 42.3 53.3)" fill="#b26351" fill-opacity=".12" stroke-width="1"/><circle cy="20" r="7" fill="#b26351" fill-opacity=".2" stroke-width="1.3"/></g>
    <g fill="none" stroke="#33465e" stroke-opacity=".38"><ellipse cx="261" cy="372" rx="62" ry="27" transform="rotate(-27 261 372)"/><ellipse cx="261" cy="372" rx="47" ry="20" transform="rotate(-27 261 372)"/><path d="M187 422 L330 319" stroke-dasharray="3 6"/></g>
    <g fill="#33465e" fill-opacity=".45"><circle cx="166" cy="428" r="3"/><circle cx="408" cy="316" r="5"/><circle cx="477" cy="281" r="3"/></g>
</svg>
