<svg xmlns="http://www.w3.org/2000/svg" class="cover-art" viewBox="0 0 1200 675" preserveAspectRatio="xMidYMid slice" role="img" aria-label="A layer-block architecture stack beside a sparse attention matrix"><defs><linearGradient id="roSky" x1="0" y1="0" x2="0" y2="1"><stop offset="0%" stop-color="#eef1f5"/><stop offset="60%" stop-color="#ecebe2"/><stop offset="100%" stop-color="#e4dccb"/></linearGradient><radialGradient id="roA" cx="50%" cy="50%" r="50%"><stop offset="0%" stop-color="#5a82be" stop-opacity=".2"/><stop offset="100%" stop-color="#5a82be" stop-opacity="0"/></radialGradient><radialGradient id="roB" cx="50%" cy="50%" r="50%"><stop offset="0%" stop-color="#e0a94a" stop-opacity=".22"/><stop offset="100%" stop-color="#e0a94a" stop-opacity="0"/></radialGradient><marker id="roArrow" viewBox="0 0 10 10" refX="8" refY="5" markerWidth="7" markerHeight="7" orient="auto-start-reverse"><path d="M0 0 L10 5 L0 10 z" fill="#2f6fb0"/></marker></defs><rect width="1200" height="675" fill="url(#roSky)"/><ellipse cx="320" cy="250" rx="380" ry="320" fill="url(#roA)"/><ellipse cx="930" cy="320" rx="360" ry="320" fill="url(#roB)"/><rect x="150" y="176" width="156" height="62" rx="11" fill="none" stroke="#33465e" stroke-width="3" stroke-opacity=".72"/><path d="M228 238 V 268" stroke="#33465e" stroke-width="3" stroke-opacity=".5"/><rect x="150" y="268" width="156" height="62" rx="11" fill="none" stroke="#33465e" stroke-width="3" stroke-opacity=".72"/><path d="M228 330 V 360" stroke="#33465e" stroke-width="3" stroke-opacity=".5"/><rect x="150" y="360" width="156" height="62" rx="11" fill="none" stroke="#33465e" stroke-width="3" stroke-opacity=".72"/><path d="M228 422 V 452" stroke="#33465e" stroke-width="3" stroke-opacity=".5"/><rect x="150" y="452" width="156" height="62" rx="11" fill="none" stroke="#33465e" stroke-width="3" stroke-opacity=".72"/><g stroke="#33465e" stroke-opacity=".18" stroke-width="1"><line x1="500" y1="150" x2="896" y2="150"/><line x1="500" y1="150" x2="500" y2="546"/><line x1="500" y1="194" x2="896" y2="194"/><line x1="544" y1="150" x2="544" y2="546"/><line x1="500" y1="238" x2="896" y2="238"/><line x1="588" y1="150" x2="588" y2="546"/><line x1="500" y1="282" x2="896" y2="282"/><line x1="632" y1="150" x2="632" y2="546"/><line x1="500" y1="326" x2="896" y2="326"/><line x1="676" y1="150" x2="676" y2="546"/><line x1="500" y1="370" x2="896" y2="370"/><line x1="720" y1="150" x2="720" y2="546"/><line x1="500" y1="414" x2="896" y2="414"/><line x1="764" y1="150" x2="764" y2="546"/><line x1="500" y1="458" x2="896" y2="458"/><line x1="808" y1="150" x2="808" y2="546"/><line x1="500" y1="502" x2="896" y2="502"/><line x1="852" y1="150" x2="852" y2="546"/><line x1="500" y1="546" x2="896" y2="546"/><line x1="896" y1="150" x2="896" y2="546"/></g><rect x="503" y="153" width="38" height="38" rx="4" fill="#2f6fb0" fill-opacity="0.5"/><rect x="547" y="153" width="38" height="38" rx="4" fill="#2f6fb0" fill-opacity="0.5"/><rect x="591" y="153" width="38" height="38" rx="4" fill="#2f6fb0" fill-opacity="0.26"/><rect x="635" y="153" width="38" height="38" rx="4" fill="#2f6fb0" fill-opacity="0.26"/><rect x="679" y="153" width="38" height="38" rx="4" fill="#2f6fb0" fill-opacity="0.26"/><rect x="723" y="153" width="38" height="38" rx="4" fill="#2f6fb0" fill-opacity="0.26"/><rect x="767" y="153" width="38" height="38" rx="4" fill="#2f6fb0" fill-opacity="0.26"/><rect x="811" y="153" width="38" height="38" rx="4" fill="#2f6fb0" fill-opacity="0.26"/><rect x="855" y="153" width="38" height="38" rx="4" fill="#2f6fb0" fill-opacity="0.26"/><rect x="503" y="197" width="38" height="38" rx="4" fill="#2f6fb0" fill-opacity="0.5"/><rect x="547" y="197" width="38" height="38" rx="4" fill="#2f6fb0" fill-opacity="0.5"/><rect x="591" y="197" width="38" height="38" rx="4" fill="#2f6fb0" fill-opacity="0.5"/><rect x="503" y="241" width="38" height="38" rx="4" fill="#2f6fb0" fill-opacity="0.26"/><rect x="547" y="241" width="38" height="38" rx="4" fill="#2f6fb0" fill-opacity="0.5"/><rect x="591" y="241" width="38" height="38" rx="4" fill="#2f6fb0" fill-opacity="0.5"/><rect x="635" y="241" width="38" height="38" rx="4" fill="#2f6fb0" fill-opacity="0.5"/><rect x="503" y="285" width="38" height="38" rx="4" fill="#2f6fb0" fill-opacity="0.26"/><rect x="591" y="285" width="38" height="38" rx="4" fill="#2f6fb0" fill-opacity="0.5"/><rect x="635" y="285" width="38" height="38" rx="4" fill="#2f6fb0" fill-opacity="0.5"/><rect x="679" y="285" width="38" height="38" rx="4" fill="#2f6fb0" fill-opacity="0.5"/><rect x="503" y="329" width="38" height="38" rx="4" fill="#2f6fb0" fill-opacity="0.26"/><rect x="635" y="329" width="38" height="38" rx="4" fill="#2f6fb0" fill-opacity="0.5"/><rect x="679" y="329" width="38" height="38" rx="4" fill="#2f6fb0" fill-opacity="0.5"/><rect x="723" y="329" width="38" height="38" rx="4" fill="#2f6fb0" fill-opacity="0.5"/><rect x="503" y="373" width="38" height="38" rx="4" fill="#2f6fb0" fill-opacity="0.26"/><rect x="679" y="373" width="38" height="38" rx="4" fill="#2f6fb0" fill-opacity="0.5"/><rect x="723" y="373" width="38" height="38" rx="4" fill="#2f6fb0" fill-opacity="0.5"/><rect x="767" y="373" width="38" height="38" rx="4" fill="#2f6fb0" fill-opacity="0.5"/><rect x="503" y="417" width="38" height="38" rx="4" fill="#2f6fb0" fill-opacity="0.26"/><rect x="723" y="417" width="38" height="38" rx="4" fill="#2f6fb0" fill-opacity="0.5"/><rect x="767" y="417" width="38" height="38" rx="4" fill="#2f6fb0" fill-opacity="0.5"/><rect x="811" y="417" width="38" height="38" rx="4" fill="#2f6fb0" fill-opacity="0.5"/><rect x="503" y="461" width="38" height="38" rx="4" fill="#2f6fb0" fill-opacity="0.26"/><rect x="767" y="461" width="38" height="38" rx="4" fill="#2f6fb0" fill-opacity="0.5"/><rect x="811" y="461" width="38" height="38" rx="4" fill="#2f6fb0" fill-opacity="0.5"/><rect x="855" y="461" width="38" height="38" rx="4" fill="#2f6fb0" fill-opacity="0.5"/><rect x="503" y="505" width="38" height="38" rx="4" fill="#2f6fb0" fill-opacity="0.26"/><rect x="811" y="505" width="38" height="38" rx="4" fill="#2f6fb0" fill-opacity="0.5"/><rect x="855" y="505" width="38" height="38" rx="4" fill="#2f6fb0" fill-opacity="0.5"/><circle cx="522" cy="128" r="5" fill="#33465e" fill-opacity=".6"/><circle cx="478" cy="172" r="5" fill="#33465e" fill-opacity=".6"/><circle cx="566" cy="128" r="5" fill="#33465e" fill-opacity=".6"/><circle cx="478" cy="216" r="5" fill="#33465e" fill-opacity=".6"/><circle cx="610" cy="128" r="5" fill="#33465e" fill-opacity=".6"/><circle cx="478" cy="260" r="5" fill="#33465e" fill-opacity=".6"/><circle cx="654" cy="128" r="5" fill="#33465e" fill-opacity=".6"/><circle cx="478" cy="304" r="5" fill="#33465e" fill-opacity=".6"/><circle cx="698" cy="128" r="5" fill="#33465e" fill-opacity=".6"/><circle cx="478" cy="348" r="5" fill="#33465e" fill-opacity=".6"/><circle cx="742" cy="128" r="5" fill="#33465e" fill-opacity=".6"/><circle cx="478" cy="392" r="5" fill="#33465e" fill-opacity=".6"/><circle cx="786" cy="128" r="5" fill="#33465e" fill-opacity=".6"/><circle cx="478" cy="436" r="5" fill="#33465e" fill-opacity=".6"/><circle cx="830" cy="128" r="5" fill="#33465e" fill-opacity=".6"/><circle cx="478" cy="480" r="5" fill="#33465e" fill-opacity=".6"/><circle cx="874" cy="128" r="5" fill="#33465e" fill-opacity=".6"/><circle cx="478" cy="524" r="5" fill="#33465e" fill-opacity=".6"/></svg>
